<svg xmlns="http://www.w3.org/2000/svg" version="1.0" viewBox="80 410 300 1" preserveAspectRatio="xMidYMid meet" >
  <rect x="0" y="0" width="450" height="800" fill="white" />
  <path d="M223.85 295.55c-6.5 3.5-5.6 11.55 2.2 19.2 5.4 5.3 4.55 6.65-1.25 2-2.35-1.9-5.3-4-6.5-4.6-8.5-4.45-17.75 4.65-12.3 12.05 1.85 2.5 2.05 3.4 1.1 5.45-6.95 15.3 10.1 17.3 22 2.6 6.15-7.55 6.35-7.6 11.9-1 6.4 7.65 9.55 9.95 14.5 10.5 7.55.85 11.85-5.9 8.05-12.7-1.2-2.2-1.15-2.75.55-4.9 3.6-4.55 1.95-10.4-3.5-12.7-4.9-2-10.55.25-17 6.8-1.45 1.5-2.05 1.65-2.65.65-.55-.85-.05-1.65 1.25-2.35 6.95-3.5 11.1-15.25 6.95-19.4-3.2-3.2-6.9-3.75-10.85-1.6-3.2 1.7-3.55 1.75-6.25.15-3.45-2.05-4.75-2.05-8.2-.15zM139.35 324.45c.3.75.85 4.1 1.2 7.4.7 5.95.8 6.1 6.05 9.6L152 345v-6.3c0-6.25 0-6.3-4.75-10.2-2.6-2.15-4.9-4.3-5.1-4.7-.6-1.5-3.4-.85-2.8.65zM324.4 327.8c-4.85 4.45-5.15 5.05-5.6 10.45-.55 6.95.25 6.95 10.1.05.25-.15.75-2.75 1.15-5.7.4-2.95 1.05-6.35 1.4-7.5 1.1-3.45-1.45-2.45-7.05 2.7z"/>
  <path d="M233.85 333.7c-.9 3.2-4.4 15.15-7.8 26.6-3.4 11.4-6.05 21.75-5.85 22.9.85 5.9 2.85 1.6 8.35-17.9 5.8-20.65 7-23.95 7.8-21.2.25.75 2.55 9.05 5.15 18.4 2.6 9.35 5.2 18.5 5.7 20.3.95 3.4 3.05 3.9 3.65.85.15-.9-3.15-13.5-7.35-27.9-4.2-14.45-7.75-26.6-7.85-27.05-.1-.45-.9 1.8-1.8 5z"/>
  <path d="M157.15 354.65c4.7 11.3 22.2 58.8 23.4 63.6 1.1 4.45 1.65 3.65 11.9-16.75 10.35-20.65 10.45-20.8 12.85-17.15.85 1.3 7.05 8.85 13.75 16.75 6.75 7.9 12.9 15.4 13.7 16.65 2.35 3.6 2.95 3.05 19.25-16.8 8.55-10.35 15.75-18.9 16.05-18.9.3-.05 4.8 8.7 10 19.4 5.2 10.65 9.85 19.3 10.3 19.2.45-.1 5.65-13.45 11.6-29.7 5.9-16.2 11.45-31.15 12.35-33.2 1.35-3.2 1.4-3.75.15-3.75-.8 0-1.45.4-1.45.85 0 .45-6.05 7.25-13.5 15.1-7.4 7.8-13.5 14.8-13.5 15.55 0 3.45 2.45 1.8 10.55-7 4.8-5.25 8.9-9.4 9.05-9.2.2.15-1.6 5.25-3.95 11.25-2.35 6.05-5.3 14.2-6.6 18.2-1.25 4-2.6 7.25-2.95 7.25-.3-.05-4.85-8.6-10.1-19.1-11.25-22.55-9.65-21-14.7-14.6-2.25 2.85-8.5 10.4-13.95 16.75-5.4 6.35-11.2 13.2-12.85 15.3l-3.05 3.8-8.95-10.7c-4.95-5.9-11.95-14.25-15.6-18.55-3.65-4.3-7.35-8.85-8.3-10.1-1.3-1.8-1.8-2-2.3-.85-1.3 3.15-18.6 36.6-19.3 37.4-.45.45-1.8-2.25-3.05-6-1.25-3.75-4.2-11.95-6.6-18.15-2.4-6.2-4.35-11.6-4.35-11.95 0-.3 4.1 3.75 9.1 9.05 8.3 8.9 10.9 10.65 10.9 7.4 0-.65-6.35-7.95-14.1-16.2-12.65-13.5-16.9-17.5-15.75-14.85z"/>
  <path d="M197.65 399.4c-.5 1.4 13.65 17.6 15.4 17.6 1 0 4.15-10.65 3.75-12.75-.6-3.25-2.7-2.3-3.8 1.7-1.35 5.05-.8 5.2-7.6-1.95-6.05-6.35-6.85-6.85-7.75-4.6zM265.15 404.05c-5.8 6.55-6.6 6.7-7.6 1.4-.4-2.15-1.15-3.4-1.85-3.15-1.5.5-1.35 5.75.25 11.65l1.2 4.4 7.9-8.4c7.35-7.9 9.65-12 6.7-11.95-.7.05-3.65 2.75-6.6 6.05zM122.8 437.95c-8.3 6.55-5.2 15.55 7.25 20.85 5.85 2.5 7.95 4.65 7.95 8.1 0 8.7-15.15 8.25-18.05-.55-1.7-5.15-3.4-3.65-3.05 2.7.3 6.15.55 6.65 2.35 5.2.9-.8 1.95-.7 3.75.3 6.15 3.4 16.65.95 19.5-4.5 3.75-7.35 1.35-11.6-9.6-17.1-9.2-4.6-11.2-7.3-8.5-11.4 3-4.6 11.45-2.7 13.65 3.05 1.5 3.95 2.95 2.75 2.95-2.45 0-4.6-.15-4.85-2.75-5-1.5-.05-5-.4-7.75-.7-4.15-.5-5.5-.25-7.7 1.5zM148 437.5c0 .8.9 1.5 1.95 1.5 3.25 0 4.05 3.2 4.05 15.85 0 17.7 2.4 21.15 14.5 21.15 12.25-.05 14.7-3.65 15.45-22.9.55-13.1.6-13.55 2.85-14.05 4.95-1.15 2.45-2.55-5.05-2.85-6.45-.25-7.75 0-7.75 1.25 0 .85.8 1.55 1.8 1.55 5.05 0 6.6 25.1 1.9 30.55-3.7 4.3-10.7 4.6-14.65.65l-3.05-3.05v-12.5c0-14.3.3-15.65 3.6-15.65 1.45 0 2.4-.6 2.4-1.5 0-1.2-1.65-1.5-9-1.5s-9 .3-9 1.5zM193 437.5c0 .8.9 1.5 1.95 1.5 3.25 0 4.05 3.25 4.05 16.7-.05 15.45-.4 17.3-3.6 17.3-1.45 0-2.4.6-2.4 1.5 0 1.25 2.45 1.5 16 1.5h16v-3.25c0-1.8.3-4.25.65-5.5.4-1.65.15-2.25-1.05-2.25-.85 0-1.6.7-1.6 1.55 0 5.4-13.2 9.1-17.45 4.9-2.15-2.2-2.25-15.45-.1-15.45 3.15 0 6.65 2.1 7.55 4.55 1.65 4.3 3 1.75 3-5.6 0-5.5-.3-6.95-1.5-6.95-.8 0-1.5.9-1.5 1.95 0 2.3-2.8 4.05-6.45 4.05-2.5 0-2.55-.1-2.55-7.5V439h6.05c7 0 9.65 1.1 10.95 4.55 1.4 3.65 3.4 3.1 2.65-.7-.35-1.7-.65-3.95-.65-5 0-1.75-1-1.85-15-1.85-12.65 0-15 .25-15 1.5zM230.8 436.55c-1.1 1.1.1 2.45 2.15 2.45 2.75 0 3.05 1.85 3.05 17.35-.05 14.85-.3 16.2-3.4 16.8-6.25 1.15-2.2 2.85 6.9 2.85 9.45 0 13.55-1.95 5.95-2.85-3.95-.45-4.4-1.5-4.45-9.45 0-9.65 2.2-9.1 11.45 3l7.05 9.2 5.25.05c5.95.05 6.8-1.3 2-3.3-2.85-1.15-15.7-15.25-14.65-15.95.25-.15 1.75-.7 3.4-1.25 7.2-2.3 8-12.95 1.25-16.95-3.35-1.95-24.4-3.6-25.95-1.95zm22.85 5c3.8 5.15.5 11.75-6.5 12.95-5.7.95-6.15.35-6.15-8.2v-7.55l5.65.45c3.95.35 6.05 1.05 7 2.35zM267.4 437.4c-.85 2.2 0 9.1 1.1 9.1.55 0 1.15-.95 1.3-2.15.55-3.8 3.5-5.5 8.85-5.15l4.85.3.3 15.35c.25 16.4-.15 18.15-4.4 18.15-1.45 0-2.4.6-2.4 1.5 0 1.25 1.8 1.5 10.1 1.5 9.45 0 13.7-1.65 7.3-2.85-4.15-.8-4.4-1.8-4.4-18.25V439h5c5.5 0 9 2.35 9 6 0 2.05 1.45 2.7 2.45 1.1.3-.5.25-2.95-.1-5.5l-.6-4.6h-18.9c-15.25 0-19 .25-19.45 1.4zM310 437.45c0 .75 1 1.55 2.25 1.75 2.25.3 2.25.45 2.25 16.75v16.45l-2.45.6c-1.3.3-2.6 1.1-2.8 1.8-.35.95 3.2 1.2 15.9 1l16.35-.3.3-5.25c.35-5.9-1.25-7.1-2.95-2.25-1.65 4.75-13.65 7.45-16.6 3.75-1.25-1.55-2.3-14.6-1.25-15.25 2.15-1.35 7.35.95 8.35 3.65 1.8 4.75 2.65 3.25 2.65-4.65 0-4.35-.4-7.5-1-7.5-.55 0-1 .65-1 1.45 0 2.1-4 4.55-7.35 4.55-2.7 0-2.85-.2-2.25-3.15.3-1.7.6-5.05.6-7.5V439h5.25c7.45.05 9.4.8 10.8 4.1 1.8 4.35 2.95 3.5 2.95-2.1v-5h-15c-12.35 0-15 .25-15 1.45zM181.25 494.7c-1.9.7-1.5 3.75 1 6.9l2.25 2.9-2.8-1.8c-6.1-3.95-7.8-1.55-6.75 9.55.2 2.2 6.15.55 8.2-2.25 2.75-3.75 3.35-3.75 6.55.05 4.4 5.25 7.8 3.9 7.8-3.05 0-5.85-2.5-7.9-6.05-4.95-1.65 1.4-2-.1-.35-1.75 3.8-3.8-3.4-7.85-9.85-5.6zM160.9 496.45c-8.15 4.55-4.3 18.9 4.6 17.1 1.65-.35 3.8-.6 4.75-.65 1.2 0 1.75-.8 1.75-2.45 0-2.95-.4-3.05-3-.45-4.4 4.4-9.35 1-8.8-6.1.45-6.4 4.75-8.75 8.35-4.6l2.45 2.8v-2.9c0-1.55-.55-2.9-1.25-3-.7-.05-2.35-.35-3.75-.65-1.35-.3-3.7.1-5.1.9zM211 495.95c0 .35.5 1.15 1.05 1.7.6.6.95 3.2.75 5.85l-.3 4.75-4.4-6.15c-3.45-4.7-5.05-6.1-6.95-6.1-2 0-2.3.25-1.35 1.2 1.5 1.5 1.6 13 .1 14.5-.8.8-.55 1.3 1 1.75 2.5.8 4.95-.3 3.15-1.4-.7-.45-1.05-2.75-.85-6l.3-5.25 4.85 6.6c6.1 8.4 6.65 8.3 6.65-1.2 0-4.3.5-8.3 1.1-8.9.75-.75.15-1.2-2-1.5-1.7-.25-3.1-.15-3.1.15zM227.9 496.2c-3.95 3.2-2.85 6 4.15 10.9 1.5 1 2.1 2.1 1.65 3.25-.9 2.3-4.25 2.05-6.65-.55l-2.05-2.2v2.6c0 2.15.55 2.7 3.6 3.25 8.7 1.65 11.4-6 3.65-10.25-4.45-2.45-5.4-4.55-2.6-5.6 1-.4 2.55.2 4 1.55l2.35 2.2v-2.7c0-1.45-.55-2.65-1.25-2.65s-2.15-.25-3.25-.55c-1.1-.3-2.7.05-3.6.75z"/>
  <path d="M242.55 503.2c-1.55 4.05-3.4 7.8-4.15 8.4-1.7 1.35-.75 2.4 2.15 2.4 1.9 0 2.2-.5 2.1-3.25-.15-2.85.2-3.3 2.55-3.55 2.85-.35 5.85 3.05 3.8 4.3-2.45 1.5-.5 2.15 6.5 2.05 7.2-.05 9.2-.7 6-1.9-1.6-.6-2.15-6.65-.6-6.65.45 0 2.15 1.7 3.7 3.75 5.05 6.75 12.3 7.95 12.05 2-.15-3 .1-3.25 2.85-3.25 2.7 0 3 .3 2.9 3l-.15 3 6.65-.1c8.25-.15 8.9-.25 7.45-1.2-3.5-2.2-1.95-6.7 2.4-7 4.5-.35 6.75 4.9 2.75 6.45-.8.3-1.25.95-.95 1.45.75 1.25 7.45 1.15 7.45-.1 0-.55-.45-1-1-1-1.45 0-1.25-13.35.2-14.8.95-.95.35-1.2-2.7-1.2-3.05 0-3.65.25-2.7 1.2 3.2 3.2 1.45 6.95-3.05 6.6-4.35-.3-5.9-4.8-2.4-7.05.65-.4-.85-.75-3.3-.75-3.85 0-4.2.15-2.7 1.3 2.85 2.05 2 14.1-1 14.5-1.85.25-2.6-.8-5.15-7.45-3.85-9.95-4.15-9.95-8.15-.35-3.75 9.15-3.6 9.05-7.85 4.75-3.05-3.2-3.1-3.35-1.2-4.55 5.45-3.35 1.6-8.2-6.45-8.15-4.6 0-5.65.25-4.3 1.05 2.45 1.4 2.55 13.65.15 14.55-2.25.9-4-1.3-6.75-8.6-3.15-8.45-3.8-8.45-7.1.15zm22.8-4.05c1.3 2.1-.7 4.85-3.45 4.85-1.4 0-1.9-.75-1.9-2.85 0-4.5 3.05-5.6 5.35-2zm15.6 5.6c0 .7-.6 1.25-1.45 1.25-1.6 0-1.9-1.75-.85-4.6.75-1.85 2.1.15 2.3 3.35zm-33.95-.7c0 1.1-.65 1.95-1.5 1.95-1.6 0-1.85-.9-.9-3.4.8-2.05 2.4-1.05 2.4 1.45z"/>
</svg>